<svg width="142" height="34" viewBox="0 0 142 34" fill="none" xmlns="http://www.w3.org/2000/svg">
<path d="M67.5847 8.52271C68.8473 8.52271 69.8409 9.52969 69.8409 10.8148C69.8409 12.1 68.8528 13.0625 67.5847 13.0625C66.3167 13.0625 65.4219 12.0777 65.4219 10.8148C65.4219 9.55194 66.3716 8.52271 67.5847 8.52271Z" fill="#B3A369"/>
<path d="M138.503 14.9541C139.931 14.9541 141.144 15.2322 141.429 15.6662C141.501 15.7608 141.528 15.9054 141.473 16.0445L140.353 18.3867C140.243 18.6315 139.996 18.6426 139.876 18.587C139.508 18.3978 138.734 18.1975 138.075 18.1975C134.946 18.1975 133.524 20.6844 133.464 20.7901L133.403 20.9014V33.1131C133.403 33.3857 133.184 33.6528 132.893 33.6528H130.472C130.165 33.6528 129.967 33.3746 129.967 33.1131V15.9443C129.967 15.655 130.209 15.4325 130.472 15.4325H131.729C131.833 15.4325 132.02 15.5605 132.064 15.7329V15.7496L132.075 15.7663L132.591 17.3964L132.882 18.3255L133.431 17.5244C133.722 17.096 135.347 14.9541 138.503 14.9541Z" fill="white"/>
<path d="M119.263 14.815C124.044 14.815 127.645 18.3366 127.645 23.0099C127.645 23.3048 127.612 23.8055 127.563 24.1448C127.53 24.423 127.288 24.5955 127.058 24.5955H113.537L113.553 25.1184C113.702 27.7444 115.832 30.5595 119.603 30.5595C121.59 30.5595 123.314 29.6582 124.143 29.1352C124.252 29.0685 124.357 29.0017 124.456 28.9572C124.571 28.9016 124.774 28.9127 124.889 29.074L126.157 30.7431L126.168 30.7598L126.207 30.8098C126.328 30.9712 126.278 31.2104 126.157 31.2994C125.532 31.8224 123.177 33.547 119.317 33.547C113.987 33.547 110.117 29.6081 110.117 24.1782C110.117 18.7483 114.053 14.8094 119.274 14.8094M113.811 22.5926H124.176C124.176 22.5926 124.176 21.2018 123.286 19.8499C122.32 18.3756 120.586 17.5244 119.219 17.5244C116.54 17.5244 115.338 18.893 114.591 19.9278C113.751 21.0961 113.751 22.5982 113.751 22.5982" fill="white"/>
<path d="M109.563 14.9429C109.793 14.9429 110.002 15.1766 109.892 15.4548L101.306 33.3801C101.103 33.764 100.565 33.764 100.395 33.369L91.815 15.4659C91.7052 15.2433 91.8534 14.9429 92.1389 14.9429H94.9056C95.1197 14.9429 95.2844 15.0876 95.3612 15.2489L100.944 27.1992L106.549 15.2267C106.642 15.0431 106.851 14.9429 107.004 14.9429H109.661" fill="white"/>
<path d="M83.2624 14.815C89.8169 14.815 90.794 20.256 90.794 23.4995V33.1187C90.794 33.4191 90.5525 33.6583 90.289 33.6583H87.7144C87.407 33.6583 87.2094 33.3801 87.2094 33.1187V23.3103C87.2094 20.0112 85.5351 18.0418 82.7354 18.0418C79.5186 18.0418 77.2624 20.3784 76.944 21.263L76.9166 21.3409V33.1187C76.9166 33.3801 76.7025 33.6583 76.4061 33.6583H73.8809C73.5735 33.6583 73.3758 33.3801 73.3758 33.1187V15.8164C73.3758 15.5104 73.6284 15.3045 73.8809 15.3045H75.1654C75.3521 15.3045 75.4673 15.4603 75.4948 15.5382V15.5549L76.3566 17.9861L76.9056 17.3575C76.9056 17.3575 79.3594 14.8205 83.2624 14.8205" fill="white"/>
<path d="M68.8963 15.0264C69.1489 15.0264 69.4014 15.2378 69.4014 15.5382V33.1354C69.4014 33.408 69.1598 33.6583 68.8963 33.6583H66.3657C66.0912 33.6583 65.8607 33.3968 65.8607 33.1187V15.5438C65.8607 15.2489 66.1077 15.0319 66.3657 15.0319H68.9842" fill="white"/>
<path d="M55.3208 8.52828C55.5679 8.52828 55.8314 8.70631 55.8314 9.04012V14.8873H61.0683C61.3483 14.8873 61.5734 15.121 61.5734 15.3991V17.3741C61.5734 17.6245 61.3758 17.886 61.0683 17.886H55.8314V27.8557C55.8314 29.5191 56.4462 30.2591 57.835 30.2591C59.0702 30.2591 60.6127 29.5136 60.8982 29.3689C61.0629 29.291 61.2824 29.33 61.3812 29.5469L62.2486 31.6889C62.3199 31.8891 62.2047 32.0727 62.0839 32.1339L62.018 32.1673L62.0016 32.1784C61.6173 32.4121 58.911 33.5471 56.6932 33.5471C53.6356 33.5471 52.3346 31.9893 52.3346 28.3341V17.886H49.7051C49.4361 17.886 49.2001 17.669 49.2001 17.3741V15.3991C49.2001 15.1265 49.4251 14.8873 49.7051 14.8873H52.3346V9.04012C52.3346 8.75638 52.5651 8.52828 52.8396 8.52828H55.4636" fill="white"/>
<path d="M40.2796 14.8929C42.0801 14.8929 44.8249 15.7496 46.7901 17.8248C46.9658 18.0418 46.9274 18.3756 46.7297 18.5425L46.5651 18.6982L45.1433 19.989C44.9511 20.1559 44.6657 20.1614 44.4736 19.989L44.4077 19.9333C43.3153 18.7316 41.7892 18.1252 40.3235 18.1252C37.2713 18.1252 34.2686 20.7567 34.2686 24.2506C34.2686 27.7444 36.9859 30.5261 40.2796 30.5261C42.6291 30.5261 43.7709 29.4134 44.6821 28.5177C44.7755 28.4231 44.8743 28.3341 44.9731 28.234C45.1652 28.0337 45.4836 28.0615 45.6483 28.2117L47.2238 29.4913C47.4763 29.7194 47.4104 30.0254 47.3171 30.1645C45.8404 32.0783 43.1725 33.6583 40.2521 33.6583C35.114 33.6583 30.909 29.4245 30.909 24.2951C30.909 19.1656 35.1963 14.8984 40.2741 14.8984" fill="white"/>
<path d="M15.9008 0.939758L29.6739 32.579C29.7892 32.8349 29.7782 33.1131 29.652 33.3189C29.5202 33.5359 29.2842 33.6528 28.9932 33.6528H26.1332C25.6776 33.6528 25.3647 33.4413 25.178 33.0018L22.3399 26.4759H7.37007L7.18343 26.9154C6.7827 27.8668 6.37647 28.807 5.97025 29.7472L5.95378 29.7806C5.49815 30.8321 5.02606 31.9225 4.57043 33.013C4.54298 33.0797 4.28498 33.6528 3.62075 33.6528H0.760715C0.469772 33.6528 0.233725 33.5359 0.101977 33.3189C-0.0242818 33.1131 -0.0352613 32.8349 0.0800182 32.5734L13.9465 0.939758C14.0782 0.66715 14.4405 0.333344 14.9621 0.333344C15.5879 0.333344 15.8953 0.939758 15.8953 0.939758H15.9008ZM9.04986 22.626H20.7041L14.8577 9.06794L14.2155 10.5645L9.05535 22.6316M13.9575 0.94532C14.0892 0.672712 14.4515 0.338906 14.973 0.338906C15.5988 0.338906 15.9062 0.94532 15.9062 0.94532" fill="white"/>
</svg>
