<svg width="228" height="168" viewBox="0 0 228 168" fill="none" xmlns="http://www.w3.org/2000/svg">
<g clip-path="url(#clip0_34690_284353)">
<path d="M221.883 169V133.295C221.883 133.295 235.645 158.608 221.883 169Z" fill="#F1F1F1"/>
<path d="M222.823 169L196.396 144.517C196.396 144.517 224.586 151.481 222.823 169Z" fill="#F1F1F1"/>
<path d="M136.014 93.3897C135.968 92.8656 136.036 92.3377 136.215 91.843C136.393 91.3483 136.678 90.8989 137.048 90.5265C137.419 90.1541 137.866 89.8677 138.359 89.6874C138.852 89.5072 139.378 89.4376 139.901 89.4834L143.691 82.1904L148.672 83.4195L143.175 93.6432C143.04 94.5187 142.59 95.314 141.909 95.8786C141.229 96.4432 140.365 96.7377 139.483 96.7065C138.6 96.6752 137.759 96.3203 137.12 95.709C136.481 95.0977 136.087 94.2725 136.014 93.3897Z" fill="#FFB7B7"/>
<path d="M158.64 164.44L154.437 164.439L152.438 148.181L158.641 148.181L158.64 164.44Z" fill="#FFB7B7"/>
<path d="M159.708 168.523L146.156 168.523V168.351C146.156 166.948 146.712 165.602 147.701 164.61C148.691 163.618 150.032 163.061 151.431 163.061L159.709 163.061L159.708 168.523Z" fill="#2F2E41"/>
<path d="M192.439 161.289L188.384 162.397L182.189 147.239L188.174 145.603L192.439 161.289Z" fill="#FFB7B7"/>
<path d="M194.548 164.95L181.473 168.525L181.428 168.359C181.06 167.006 181.243 165.561 181.937 164.343C182.631 163.125 183.779 162.233 185.129 161.864L193.115 159.68L194.548 164.95Z" fill="#2F2E41"/>
<path d="M150.964 94.2047L148.867 126.135L153.371 161.958L160.748 159.7L161.058 127.692L166.96 109.235L184.431 158.532L192.429 155.573L185.829 123.565L182.102 93.5039L150.964 94.2047Z" fill="#2F2E41"/>
<path d="M171.346 38.1367L158.924 39.9738L154.448 44.4127L153.059 60.3618L153.922 74.4888L150.324 99.4011C150.324 99.4011 159.371 94.3643 166.382 100.669C173.393 106.974 183.204 101.784 183.405 97.5893L171.346 38.1367Z" fill="#CBCBCB"/>
<path d="M165.039 58.1381L165.039 58.1202L171.21 37.9462L171.29 37.941C171.729 37.9123 182.075 37.3008 184.39 42.4242L184.401 42.4489L183.698 63.4139L184.666 96.2481L165.531 100.405L165.391 100.435L165.039 58.1381Z" fill="#2F2E41"/>
<path d="M158.202 56.7438L159.334 39.6416C151.283 40.1439 151.404 45.8689 151.413 46.1186L151.325 71.6999L149.713 99.0676L155.576 98.6266L158.202 56.7438Z" fill="#2F2E41"/>
<path d="M140.047 87.8626L147.195 71.2247L152.184 62.0361L154.789 78.6114L145.745 92.2167L140.047 87.8626Z" fill="#2F2E41"/>
<path d="M169.584 81.741C169.694 81.2264 169.914 80.7422 170.231 80.3224C170.547 79.9026 170.951 79.5574 171.415 79.3112C171.878 79.065 172.39 78.9237 172.914 78.8973C173.438 78.871 173.961 78.9601 174.447 79.1586L180.214 73.3115L184.612 75.9595L176.352 84.102C175.966 84.8985 175.301 85.5252 174.485 85.8633C173.669 86.2014 172.757 86.2274 171.923 85.9363C171.088 85.6453 170.39 85.0575 169.959 84.2843C169.528 83.511 169.394 82.6061 169.584 81.741Z" fill="#FFB7B7"/>
<path d="M174.436 77.0261L186.193 64.09L178.41 52.9518L179.211 47.5063L183.799 41.8232L183.888 41.9393C184.377 42.5739 195.867 57.5452 196.197 63.2127C196.528 68.9013 180.013 83.2908 179.309 83.9004L179.212 83.9852L174.436 77.0261Z" fill="#2F2E41"/>
<path d="M164.177 36.7352C168.793 36.7352 172.534 32.9828 172.534 28.3539C172.534 23.7251 168.793 19.9727 164.177 19.9727C159.562 19.9727 155.82 23.7251 155.82 28.3539C155.82 32.9828 159.562 36.7352 164.177 36.7352Z" fill="#FFB7B7"/>
<path d="M172.036 21.6549L172.441 20.837L170.403 19.8213C170.403 19.8213 168.154 16.1515 164.085 17.1828C160.015 18.214 158.184 18.8313 158.184 18.8313L156.151 19.8574L157.171 20.8758L155.341 21.493L156.564 22.1025L155.141 22.9228L155.907 27.1284C155.907 27.1284 157.179 23.9386 159.625 25.1576C162.072 26.3765 166.546 24.5275 166.546 24.5275L170.434 32.0727C170.434 32.0727 171.236 29.4277 172.665 30.133C172.665 30.133 176.318 24.2985 172.036 21.6549Z" fill="#2F2E41"/>
<path d="M97.5162 87.79L24.1569 108.067L0 20.277L73.3593 0L97.5162 87.79Z" fill="white"/>
<path d="M97.5162 87.79L24.1569 108.067L0 20.277L73.3593 0L97.5162 87.79ZM25.0941 106.412L95.8651 86.8507L72.4221 1.6548L1.65109 21.2164L25.0941 106.412Z" fill="#F1F1F1"/>
<path d="M57.3946 39.3287L39.0057 44.4115C38.7463 44.4829 38.4692 44.4482 38.2353 44.3151C38.0013 44.182 37.8296 43.9614 37.7578 43.7015L32.6864 25.2712C32.6152 25.0112 32.6498 24.7335 32.7826 24.4991C32.9154 24.2646 33.1355 24.0925 33.3948 24.0205L51.7837 18.9377C52.0431 18.8663 52.3202 18.901 52.5541 19.0341C52.788 19.1672 52.9597 19.3878 53.0316 19.6477L58.103 38.078C58.1742 38.338 58.1396 38.6157 58.0068 38.8501C57.874 39.0846 57.6538 39.2567 57.3946 39.3287ZM33.5027 24.4127C33.3471 24.4559 33.215 24.5591 33.1353 24.6998C33.0556 24.8405 33.0349 25.0071 33.0776 25.1631L38.149 43.5934C38.1921 43.7493 38.2951 43.8817 38.4355 43.9616C38.5759 44.0414 38.7421 44.0622 38.8978 44.0194L57.2867 38.9366C57.4422 38.8934 57.5743 38.7901 57.654 38.6494C57.7337 38.5088 57.7544 38.3421 57.7117 38.1861L52.6403 19.7558C52.5972 19.5999 52.4942 19.4675 52.3538 19.3877C52.2134 19.3078 52.0472 19.287 51.8916 19.3299L33.5027 24.4127Z" fill="#E5E5E5"/>
<path d="M52.7332 43.0431L34.3443 48.1259C34.1109 48.1901 33.8615 48.1589 33.651 48.0391C33.4404 47.9194 33.2859 47.7208 33.2212 47.4869L28.1498 29.0566C28.0857 28.8226 28.1168 28.5727 28.2364 28.3616C28.3559 28.1506 28.554 27.9957 28.7874 27.931L47.1762 22.8481C47.4097 22.7839 47.6591 22.8151 47.8696 22.9349C48.0802 23.0547 48.2347 23.2533 48.2993 23.4871L53.3707 41.9174C53.4349 42.1514 53.4037 42.4013 53.2842 42.6124C53.1647 42.8234 52.9666 42.9783 52.7332 43.0431Z" fill="#0F6FF5"/>
<path d="M74.0369 45.56L22.7207 59.7441L23.2676 61.7316L74.5838 47.5475L74.0369 45.56Z" fill="#F1F1F1"/>
<path d="M75.4608 50.7406L24.1445 64.9248L24.6914 66.9123L76.0077 52.7281L75.4608 50.7406Z" fill="#F1F1F1"/>
<path d="M76.8885 55.9242L25.5723 70.1084L26.1192 72.0959L77.4354 57.9117L76.8885 55.9242Z" fill="#F1F1F1"/>
<path d="M79.3963 65.0434L28.0801 79.2275L28.627 81.215L79.9432 67.0309L79.3963 65.0434Z" fill="#F1F1F1"/>
<path d="M80.824 70.225L29.5078 84.4092L30.0547 86.3967L81.3709 72.2125L80.824 70.225Z" fill="#F1F1F1"/>
<path d="M82.2498 75.4086L30.9336 89.5928L31.4805 91.5803L82.7967 77.3961L82.2498 75.4086Z" fill="#F1F1F1"/>
<path d="M120.998 107.773H44.9001V16.7061H120.998V107.773Z" fill="white"/>
<path d="M120.998 107.773H44.9001V16.7061H120.998V107.773ZM46.2426 106.428H119.656V18.0516H46.2426V106.428Z" fill="#E5E5E5"/>
<path d="M107.143 55.8545H63.6345V57.9162H107.143V55.8545Z" fill="#0F6FF5"/>
<path d="M107.143 61.2158H63.6345V63.2775H107.143V61.2158Z" fill="#0F6FF5"/>
<path d="M107.143 66.5752H63.6345V68.6369H107.143V66.5752Z" fill="#0F6FF5"/>
<path d="M60.0981 58.5338C60.8395 58.5338 61.4406 57.9314 61.4406 57.1883C61.4406 56.4452 60.8395 55.8428 60.0981 55.8428C59.3567 55.8428 58.7556 56.4452 58.7556 57.1883C58.7556 57.9314 59.3567 58.5338 60.0981 58.5338Z" fill="#0F6FF5"/>
<path d="M107.143 32.7578H63.6345V34.8195H107.143V32.7578Z" fill="#E5E5E5"/>
<path d="M107.143 38.1172H63.6345V40.1789H107.143V38.1172Z" fill="#E5E5E5"/>
<path d="M107.143 43.4785H63.6345V45.5402H107.143V43.4785Z" fill="#E5E5E5"/>
<path d="M60.0981 35.2106C60.8395 35.2106 61.4406 34.6081 61.4406 33.865C61.4406 33.1219 60.8395 32.5195 60.0981 32.5195C59.3567 32.5195 58.7556 33.1219 58.7556 33.865C58.7556 34.6081 59.3567 35.2106 60.0981 35.2106Z" fill="#E5E5E5"/>
<path d="M107.143 79.1768H63.6345V81.2385H107.143V79.1768Z" fill="#E5E5E5"/>
<path d="M107.143 84.5381H63.6345V86.5998H107.143V84.5381Z" fill="#E5E5E5"/>
<path d="M107.143 89.8975H63.6345V91.9592H107.143V89.8975Z" fill="#E5E5E5"/>
<path d="M60.0981 81.6305C60.8395 81.6305 61.4406 81.0281 61.4406 80.285C61.4406 79.5419 60.8395 78.9395 60.0981 78.9395C59.3567 78.9395 58.7556 79.5419 58.7556 80.285C58.7556 81.0281 59.3567 81.6305 60.0981 81.6305Z" fill="#E5E5E5"/>
<path d="M117.445 115.616C126.035 115.616 132.998 108.637 132.998 100.027C132.998 91.4179 126.035 84.4385 117.445 84.4385C108.854 84.4385 101.891 91.4179 101.891 100.027C101.891 108.637 108.854 115.616 117.445 115.616Z" fill="#0F6FF5"/>
<path d="M121.755 99.0335V96.0507C121.755 95.4833 121.644 94.9213 121.427 94.3969C121.211 93.8725 120.894 93.396 120.494 92.9946C120.093 92.5932 119.618 92.2748 119.095 92.0576C118.572 91.8403 118.011 91.7285 117.445 91.7285C116.879 91.7285 116.318 91.8403 115.795 92.0576C115.272 92.2748 114.797 92.5932 114.397 92.9946C113.997 93.396 113.679 93.8725 113.463 94.3969C113.247 94.9213 113.136 95.4833 113.136 96.0507V99.0335C112.56 99.0595 112.016 99.307 111.618 99.7247C111.219 100.142 110.996 100.698 110.996 101.276V108.324H123.894V101.276C123.894 100.698 123.672 100.142 123.273 99.7247C122.875 99.307 122.331 99.0595 121.755 99.0335ZM117.445 93.2523C118.186 93.2532 118.895 93.5483 119.419 94.0729C119.942 94.5975 120.236 95.3088 120.237 96.0507V99.0283H114.653V96.0507C114.654 95.3088 114.949 94.5975 115.472 94.0729C115.995 93.5483 116.705 93.2532 117.445 93.2523Z" fill="white"/>
<path d="M118.604 102.514C118.604 102.314 118.552 102.117 118.454 101.942C118.356 101.768 118.214 101.622 118.043 101.518C117.872 101.415 117.677 101.358 117.477 101.352C117.277 101.346 117.079 101.393 116.902 101.486C116.726 101.58 116.576 101.718 116.468 101.887C116.361 102.055 116.298 102.249 116.287 102.449C116.276 102.649 116.317 102.849 116.405 103.028C116.494 103.208 116.627 103.362 116.792 103.474V106H118.097V103.474C118.253 103.368 118.381 103.225 118.469 103.057C118.558 102.89 118.604 102.703 118.604 102.514Z" fill="#0F6FF5"/>
<path d="M227.737 167.892H127.488C127.418 167.892 127.351 167.864 127.302 167.814C127.252 167.765 127.225 167.698 127.225 167.628C127.225 167.558 127.252 167.491 127.302 167.441C127.351 167.392 127.418 167.364 127.488 167.364H227.737C227.806 167.364 227.873 167.392 227.923 167.441C227.972 167.491 228 167.558 228 167.628C228 167.698 227.972 167.765 227.923 167.814C227.873 167.864 227.806 167.892 227.737 167.892Z" fill="#CBCBCB"/>
</g>
<defs>
<clipPath id="clip0_34690_284353">
<rect width="228" height="168" fill="white"/>
</clipPath>
</defs>
</svg>
