<svg width="16" height="18" viewBox="0 0 16 18" fill="none" xmlns="http://www.w3.org/2000/svg">
<path d="M1.70137 18C1.22595 18 0.823532 17.8352 0.494119 17.5056C0.164706 17.1761 0 16.7734 0 16.2978V3.69417C0 3.21851 0.164706 2.8159 0.494119 2.48632C0.823532 2.15674 1.22595 1.99195 1.70137 1.99195H3.00455V0H4.45248V1.99195H11.5837V0H12.9955V1.99195H14.2986C14.774 1.99195 15.1765 2.15674 15.5059 2.48632C15.8353 2.8159 16 3.21851 16 3.69417V16.2978C16 16.7734 15.8353 17.1761 15.5059 17.5056C15.1765 17.8352 14.774 18 14.2986 18H1.70137ZM1.70137 16.5875H14.2986C14.371 16.5875 14.4374 16.5574 14.4978 16.497C14.5581 16.4366 14.5883 16.3702 14.5883 16.2978V7.46078H1.41175V16.2978C1.41175 16.3702 1.44191 16.4366 1.50224 16.497C1.56258 16.5574 1.62896 16.5875 1.70137 16.5875ZM1.41175 6.04833H14.5883V3.69417C14.5883 3.62173 14.5581 3.55532 14.4978 3.49494C14.4374 3.43458 14.371 3.4044 14.2986 3.4044H1.70137C1.62896 3.4044 1.56258 3.43458 1.50224 3.49494C1.44191 3.55532 1.41175 3.62173 1.41175 3.69417V6.04833Z" fill="#0F6FF5"/>
</svg>
