<svg width="40" height="40" viewBox="0 0 40 40" fill="none" xmlns="http://www.w3.org/2000/svg">
<g clip-path="url(#clip0_42995_52936)">
<path d="M5 21.666H8.33333V18.3327H5V21.666ZM5 28.3327H8.33333V24.9993H5V28.3327ZM5 14.9993H8.33333V11.666H5V14.9993ZM11.6667 21.666H35V18.3327H11.6667V21.666ZM11.6667 28.3327H35V24.9993H11.6667V28.3327ZM11.6667 11.666V14.9993H35V11.666H11.6667ZM5 21.666H8.33333V18.3327H5V21.666ZM5 28.3327H8.33333V24.9993H5V28.3327ZM5 14.9993H8.33333V11.666H5V14.9993ZM11.6667 21.666H35V18.3327H11.6667V21.666ZM11.6667 28.3327H35V24.9993H11.6667V28.3327ZM11.6667 11.666V14.9993H35V11.666H11.6667Z" fill="#007AFF"/>
</g>
<defs>
<clipPath id="clip0_42995_52936">
<rect width="40" height="40" fill="white"/>
</clipPath>
</defs>
</svg>