<svg width="112" height="112" viewBox="0 0 112 112" fill="none" xmlns="http://www.w3.org/2000/svg">
<path d="M56 0.5C86.6517 0.5 111.5 25.3481 111.5 56C111.5 86.6519 86.6517 111.5 56 111.5C25.3481 111.5 0.5 86.6519 0.5 56C0.5 25.3481 25.3481 0.5 56 0.5Z" stroke="#DB0D11" stroke-miterlimit="10"/>
<path opacity="0.4" d="M56 8C82.5095 8 104 29.4905 104 56C104 82.5098 82.5095 104 56 104C29.4905 104 8 82.5098 8 56C8 29.4905 29.4905 8 56 8Z" fill="#DB0D11"/>
<path d="M56 24C73.6608 24 88 38.3392 88 56C88 73.6608 73.6608 88 56 88C38.3392 88 24 73.6608 24 56C24 38.3392 38.3392 24 56 24Z" fill="#DB0D11"/>
<path d="M67.5087 46.0023C68.1203 46.6138 68.1647 47.6144 67.6204 48.2174L67.5709 48.2696L48.2696 67.5708C47.6907 68.1498 46.6911 68.1394 46.0573 67.5612L46.0023 67.5087L44.4913 65.9977C43.8797 65.3861 43.8353 64.3856 44.3796 63.7826L44.4292 63.7304L63.7304 44.4292C64.3094 43.8502 65.309 43.8606 65.9428 44.4388L65.9977 44.4913L67.5087 46.0023Z" fill="white"/>
<path d="M46.0023 44.4913C46.6138 43.8797 47.6144 43.8353 48.2174 44.3796L48.2696 44.4292L67.5708 63.7304C68.1498 64.3094 68.1394 65.309 67.5612 65.9428L67.5087 65.9977L65.9977 67.5087C65.3861 68.1203 64.3856 68.1647 63.7825 67.6204L63.7304 67.5708L44.4292 48.2696C43.8502 47.6906 43.8606 46.691 44.4388 46.0573L44.4913 46.0023L46.0023 44.4913Z" fill="white"/>
</svg>
