<svg width="41" height="40" viewBox="0 0 41 40" fill="none" xmlns="http://www.w3.org/2000/svg">
<g clip-path="url(#clip0_22592_87364)">
<g clip-path="url(#clip1_22592_87364)">
<path d="M32.7962 21.6333C32.8628 21.0999 32.9128 20.5666 32.9128 19.9999C32.9128 19.4333 32.8628 18.8999 32.7962 18.3666L36.3128 15.6166C36.6295 15.3666 36.7128 14.9166 36.5128 14.5499L33.1795 8.78325C33.0295 8.51659 32.7462 8.36659 32.4461 8.36659C32.3462 8.36659 32.2462 8.38325 32.1628 8.41659L28.0128 10.0833C27.1462 9.41659 26.2128 8.86659 25.1962 8.44992L24.5628 4.03325C24.5128 3.63325 24.1628 3.33325 23.7462 3.33325H17.0795C16.6628 3.33325 16.3128 3.63325 16.2628 4.03325L15.6295 8.44992C14.6128 8.86659 13.6795 9.43325 12.8128 10.0833L8.66282 8.41659C8.56282 8.38325 8.46282 8.36659 8.36282 8.36659C8.07948 8.36659 7.79615 8.51659 7.64615 8.78325L4.31282 14.5499C4.09615 14.9166 4.19615 15.3666 4.51282 15.6166L8.02949 18.3666C7.96282 18.8999 7.91282 19.4499 7.91282 19.9999C7.91282 20.5499 7.96282 21.0999 8.02949 21.6333L4.51282 24.3833C4.19615 24.6333 4.11282 25.0833 4.31282 25.4499L7.64615 31.2166C7.79615 31.4833 8.07949 31.6333 8.37949 31.6333C8.47949 31.6333 8.57948 31.6166 8.66282 31.5833L12.8128 29.9166C13.6795 30.5833 14.6128 31.1333 15.6295 31.5499L16.2628 35.9666C16.3128 36.3666 16.6628 36.6666 17.0795 36.6666H23.7462C24.1628 36.6666 24.5128 36.3666 24.5628 35.9666L25.1962 31.5499C26.2128 31.1333 27.1462 30.5666 28.0128 29.9166L32.1628 31.5833C32.2628 31.6166 32.3628 31.6333 32.4628 31.6333C32.7462 31.6333 33.0295 31.4833 33.1795 31.2166L36.5128 25.4499C36.7128 25.0833 36.6295 24.6333 36.3128 24.3833L32.7962 21.6333ZM29.4962 18.7833C29.5628 19.2999 29.5795 19.6499 29.5795 19.9999C29.5795 20.3499 29.5462 20.7166 29.4962 21.2166L29.2628 23.0999L30.7462 24.2666L32.5462 25.6666L31.3795 27.6833L29.2628 26.8333L27.5295 26.1333L26.0295 27.2666C25.3128 27.7999 24.6295 28.1999 23.9462 28.4833L22.1795 29.1999L21.9128 31.0833L21.5795 33.3333H19.2462L18.9295 31.0833L18.6628 29.1999L16.8962 28.4833C16.1795 28.1833 15.5128 27.7999 14.8462 27.2999L13.3295 26.1333L11.5628 26.8499L9.44615 27.6999L8.27948 25.6833L10.0795 24.2833L11.5628 23.1166L11.3295 21.2333C11.2795 20.7166 11.2462 20.3333 11.2462 19.9999C11.2462 19.6666 11.2795 19.2833 11.3295 18.7833L11.5628 16.8999L10.0795 15.7333L8.27948 14.3333L9.44615 12.3166L11.5628 13.1666L13.2962 13.8666L14.7962 12.7333C15.5128 12.1999 16.1962 11.7999 16.8795 11.5166L18.6462 10.7999L18.9128 8.91659L19.2462 6.66659H21.5628L21.8795 8.91659L22.1462 10.7999L23.9128 11.5166C24.6295 11.8166 25.2962 12.1999 25.9628 12.6999L27.4795 13.8666L29.2462 13.1499L31.3628 12.2999L32.5295 14.3166L30.7462 15.7333L29.2628 16.8999L29.4962 18.7833ZM20.4128 13.3333C16.7295 13.3333 13.7462 16.3166 13.7462 19.9999C13.7462 23.6833 16.7295 26.6666 20.4128 26.6666C24.0962 26.6666 27.0795 23.6833 27.0795 19.9999C27.0795 16.3166 24.0962 13.3333 20.4128 13.3333ZM20.4128 23.3333C18.5795 23.3333 17.0795 21.8333 17.0795 19.9999C17.0795 18.1666 18.5795 16.6666 20.4128 16.6666C22.2462 16.6666 23.7462 18.1666 23.7462 19.9999C23.7462 21.8333 22.2462 23.3333 20.4128 23.3333Z" fill="#0F6FF5"/>
</g>
</g>
<defs>
<clipPath id="clip0_22592_87364">
<rect width="40" height="40" fill="white" transform="translate(0.412109)"/>
</clipPath>
<clipPath id="clip1_22592_87364">
<rect width="40" height="40" fill="white" transform="translate(0.412109)"/>
</clipPath>
</defs>
</svg>
