<svg width="41" height="40" viewBox="0 0 41 40" fill="none" xmlns="http://www.w3.org/2000/svg">
<g clip-path="url(#clip0_22592_86291)">
<path d="M30.0781 21.6667H28.9448L25.6115 25.0001H28.7948L31.7448 28.3334H8.41146L11.3781 25.0001H14.7948L11.4615 21.6667H10.0781L5.07812 26.6667V33.3334C5.07812 35.1667 6.56146 36.6667 8.39479 36.6667H31.7448C33.5781 36.6667 35.0781 35.1834 35.0781 33.3334V26.6667L30.0781 21.6667ZM31.7448 33.3334H8.41146V31.6667H31.7448V33.3334ZM18.9781 25.0334C19.6281 25.6834 20.6781 25.6834 21.3281 25.0334L31.9281 14.4334C32.5781 13.7834 32.5781 12.7334 31.9281 12.0834L23.6781 3.8334C23.0448 3.16674 21.9948 3.16674 21.3448 3.81674L10.7281 14.4334C10.0781 15.0834 10.0781 16.1334 10.7281 16.7834L18.9781 25.0334ZM22.5115 7.35007L28.4115 13.2501L20.1615 21.5001L14.2615 15.6001L22.5115 7.35007Z" fill="#007AFF"/>
</g>
<defs>
<clipPath id="clip0_22592_86291">
<rect width="40" height="40" fill="white" transform="translate(0.078125)"/>
</clipPath>
</defs>
</svg>
