<svg width="112" height="112" viewBox="0 0 112 112" fill="none" xmlns="http://www.w3.org/2000/svg">
<path d="M56 0.5C86.6517 0.5 111.5 25.3481 111.5 56C111.5 86.6519 86.6517 111.5 56 111.5C25.3481 111.5 0.5 86.6519 0.5 56C0.5 25.3481 25.3481 0.5 56 0.5Z" stroke="#0FB4F5" stroke-miterlimit="10"/>
<path opacity="0.4" d="M56 8C82.5095 8 104 29.4905 104 56C104 82.5098 82.5095 104 56 104C29.4905 104 8 82.5098 8 56C8 29.4905 29.4905 8 56 8Z" fill="#0FB4F5"/>
<path d="M56 24C73.6608 24 88 38.3392 88 56C88 73.6608 73.6608 88 56 88C38.3392 88 24 73.6608 24 56C24 38.3392 38.3392 24 56 24Z" fill="#0FB4F5"/>
<path d="M56.1372 48.0003C57.8235 48.0003 59 46.4808 59 45.1172C59 43.5198 57.8235 42.0003 56.1372 42.0003C54.1764 42.0003 53 43.5198 53 45.1172C53 46.4808 54.1764 48.0003 56.1372 48.0003ZM56.9318 69.1582C57.6862 69.1582 58.3306 68.5498 58.3668 67.8198L58.3684 67.7551V53.1929C58.3684 52.4561 57.7455 51.8267 56.9981 51.7914L56.9318 51.7898H55.0681C54.3138 51.7898 53.6694 52.3982 53.6332 53.1282L53.6316 53.1929V67.7551C53.6316 68.4918 54.2544 69.1213 55.0019 69.1566L55.0681 69.1582H56.9318Z" fill="white"/>
</svg>
