<svg width="25" height="25" viewBox="0 0 25 25" fill="none" xmlns="http://www.w3.org/2000/svg">
  <path
    d="M0 25V5.55556H5.55556V0H19.4444V11.1111H25V25H13.8889V19.4444H11.1111V25H0ZM2.77778 22.2222H5.55556V19.4444H2.77778V22.2222ZM2.77778 16.6667H5.55556V13.8889H2.77778V16.6667ZM2.77778 11.1111H5.55556V8.33333H2.77778V11.1111ZM8.33333 16.6667H11.1111V13.8889H8.33333V16.6667ZM8.33333 11.1111H11.1111V8.33333H8.33333V11.1111ZM8.33333 5.55556H11.1111V2.77778H8.33333V5.55556ZM13.8889 16.6667H16.6667V13.8889H13.8889V16.6667ZM13.8889 11.1111H16.6667V8.33333H13.8889V11.1111ZM13.8889 5.55556H16.6667V2.77778H13.8889V5.55556ZM19.4444 22.2222H22.2222V19.4444H19.4444V22.2222ZM19.4444 16.6667H22.2222V13.8889H19.4444V16.6667Z"
    fill="#0F6FF5" />
</svg>
