<svg width="22" height="27" viewBox="0 0 22 27" fill="none" xmlns="http://www.w3.org/2000/svg">
<path d="M13.3333 0H2.66667C1.2 0 0 1.2 0 2.66667V24C0 25.4667 1.2 26.6667 2.66667 26.6667H18.6667C20.1333 26.6667 21.3333 25.4667 21.3333 24V8L13.3333 0ZM2.66667 24V2.66667H12V8H18.6667V24H2.66667ZM9.33333 22.6667H12V21.3333H13.3333C14.0667 21.3333 14.6667 20.7333 14.6667 20V16C14.6667 15.2667 14.0667 14.6667 13.3333 14.6667H9.33333V13.3333H14.6667V10.6667H12V9.33333H9.33333V10.6667H8C7.26667 10.6667 6.66667 11.2667 6.66667 12V16C6.66667 16.7333 7.26667 17.3333 8 17.3333H12V18.6667H6.66667V21.3333H9.33333V22.6667Z" fill="#007AFF"/>
</svg>
