<svg width="28" height="28" viewBox="0 0 28 28" fill="none" xmlns="http://www.w3.org/2000/svg">
<path d="M4.66797 21.35V19.775H7.11797V11.7425C7.11797 10.2725 7.59922 8.96438 8.56172 7.81813C9.52422 6.67188 10.793 5.95 12.368 5.6525V4.89125C12.368 4.48875 12.5284 4.15625 12.8492 3.89375C13.1701 3.63125 13.5541 3.5 14.0013 3.5C14.4485 3.5 14.8326 3.63125 15.1534 3.89375C15.4742 4.15625 15.6346 4.48875 15.6346 4.89125V5.6525C17.2096 5.95 18.4832 6.67188 19.4555 7.81813C20.4277 8.96438 20.9138 10.2725 20.9138 11.7425V19.775H23.3346V21.35H4.66797ZM14.0013 24.5C13.3791 24.5 12.8346 24.2944 12.368 23.8831C11.9013 23.4719 11.668 22.9775 11.668 22.4H16.3346C16.3346 22.9775 16.1062 23.4719 15.6492 23.8831C15.1923 24.2944 14.643 24.5 14.0013 24.5ZM8.86797 19.775H19.1638V11.7425C19.1638 10.4475 18.668 9.345 17.6763 8.435C16.6846 7.525 15.4694 7.07 14.0305 7.07C12.5916 7.07 11.3714 7.525 10.3701 8.435C9.36866 9.345 8.86797 10.4475 8.86797 11.7425V19.775Z" fill="white"/>
</svg>
