<svg width="41" height="26" viewBox="0 0 41 26" fill="none" xmlns="http://www.w3.org/2000/svg">
    <path
        d="M10.9437 26C9.98124 26 9.16667 25.6689 8.49999 25.0066C7.83333 24.3443 7.5 23.5351 7.5 22.579V18.6316H11.6325V0H30.9172V11.6368C30.5729 11.5667 30.225 11.5478 29.8736 11.5803C29.5221 11.6127 29.1813 11.6939 28.851 11.8237V2.0526H13.6987V18.6316H21.3543L19.2881 20.6842H9.5662V22.579C9.5662 22.9667 9.69821 23.2917 9.96223 23.554C10.2262 23.8163 10.5534 23.9474 10.9437 23.9474H18.9437V26H10.9437ZM21.9636 26V22.2605L27.7544 16.5079L28.9305 17.6631L23.6059 22.9316V24.3684H25.0523L30.3769 19.1L31.5318 20.2473L25.7411 26H21.9636ZM31.5318 20.2473L27.7544 16.5079L29.3835 14.8895C29.6184 14.6649 29.9111 14.5526 30.2616 14.5526C30.6122 14.5526 30.9005 14.6649 31.1265 14.8895L33.1609 16.9105C33.387 17.1351 33.5 17.4215 33.5 17.7697C33.5 18.118 33.387 18.4087 33.1609 18.6421L31.5318 20.2473ZM15.3411 8.47363V6.42106H27.2086V8.47363H15.3411ZM15.3411 12.421V10.3684H27.2086V12.421H15.3411Z"
        fill="#919191" />
</svg>
