<svg width="30" height="45" viewBox="0 0 30 45" fill="none" xmlns="http://www.w3.org/2000/svg">
  <path
    d="M6.52939 36C5.54298 36 4.70815 35.6561 4.02487 34.9684C3.34162 34.2806 3 33.4403 3 32.4474V28.3482H7.23531V9H27V32.4474C27 33.4403 26.6584 34.2806 25.9751 34.9684C25.2919 35.6561 24.457 36 23.4706 36H6.52939ZM23.4706 33.8685C23.8706 33.8685 24.2059 33.7323 24.4765 33.4599C24.7471 33.1875 24.8824 32.85 24.8824 32.4474V11.1315H9.35292V28.3482H22.0588V32.4474C22.0588 32.85 22.1941 33.1875 22.4647 33.4599C22.7353 33.7323 23.0706 33.8685 23.4706 33.8685ZM11.0362 17.7995V15.668H23.1991V17.7995H11.0362ZM11.0362 21.8988V19.7672H23.1991V21.8988H11.0362ZM6.52939 33.8685H19.9412V30.4797H5.11762V32.4474C5.11762 32.85 5.25291 33.1875 5.5235 33.4599C5.79409 33.7323 6.12938 33.8685 6.52939 33.8685ZM6.52939 33.8685H5.11762H19.9412H6.52939Z"
    fill="#0F6FF5" />
</svg>
