<svg width="41" height="40" viewBox="0 0 41 40" fill="none" xmlns="http://www.w3.org/2000/svg">
<g clip-path="url(#clip0_22592_91531)">
<path d="M17.5768 20.0001C21.2602 20.0001 24.2435 17.0167 24.2435 13.3334C24.2435 9.65008 21.2602 6.66675 17.5768 6.66675C13.8935 6.66675 10.9102 9.65008 10.9102 13.3334C10.9102 17.0167 13.8935 20.0001 17.5768 20.0001ZM17.5768 10.0001C19.4102 10.0001 20.9102 11.5001 20.9102 13.3334C20.9102 15.1667 19.4102 16.6667 17.5768 16.6667C15.7435 16.6667 14.2435 15.1667 14.2435 13.3334C14.2435 11.5001 15.7435 10.0001 17.5768 10.0001Z" fill="#007AFF"/>
<path d="M7.57747 30.0001C7.94414 28.8001 13.0941 26.6668 17.5775 26.6668C17.5775 25.5001 17.7941 24.3835 18.1608 23.3501C13.6108 23.1835 4.24414 25.4501 4.24414 30.0001V33.3335H20.1441C19.2775 32.3668 18.5941 31.2501 18.1608 30.0001H7.57747Z" fill="#007AFF"/>
<path d="M33.2935 30.0333C33.8935 29.05 34.2435 27.9 34.2435 26.6667C34.2435 22.9833 31.2602 20 27.5768 20C23.8935 20 20.9102 22.9833 20.9102 26.6667C20.9102 30.35 23.8935 33.3333 27.5768 33.3333C28.8102 33.3333 29.9602 32.9667 30.9435 32.3833C32.4935 33.9333 33.6435 35.0833 35.2268 36.6667L37.5768 34.3167C35.0768 31.8167 36.2602 32.9833 33.2935 30.0333ZM27.5768 30C25.7435 30 24.2435 28.5 24.2435 26.6667C24.2435 24.8333 25.7435 23.3333 27.5768 23.3333C29.4102 23.3333 30.9102 24.8333 30.9102 26.6667C30.9102 28.5 29.4102 30 27.5768 30Z" fill="#007AFF"/>
</g>
<defs>
<clipPath id="clip0_22592_91531">
<rect width="40" height="40" fill="white" transform="translate(0.910156)"/>
</clipPath>
</defs>
</svg>
