<svg width="24" height="27" viewBox="0 0 24 27" fill="none" xmlns="http://www.w3.org/2000/svg">
<path d="M21.3333 2.66667H15.76C15.2 1.12 13.7333 0 12 0C10.2667 0 8.8 1.12 8.24 2.66667H2.66667C1.2 2.66667 0 3.86667 0 5.33333V24C0 25.4667 1.2 26.6667 2.66667 26.6667H21.3333C22.8 26.6667 24 25.4667 24 24V5.33333C24 3.86667 22.8 2.66667 21.3333 2.66667ZM12 2.33333C12.2933 2.33333 12.5467 2.46667 12.7333 2.66667C12.8933 2.84 13 3.08 13 3.33333C13 3.88 12.5467 4.33333 12 4.33333C11.4533 4.33333 11 3.88 11 3.33333C11 3.08 11.1067 2.84 11.2667 2.66667C11.4533 2.46667 11.7067 2.33333 12 2.33333ZM21.3333 24H2.66667V5.33333H21.3333V24ZM12 6.66667C9.8 6.66667 8 8.46667 8 10.6667C8 12.8667 9.8 14.6667 12 14.6667C14.2 14.6667 16 12.8667 16 10.6667C16 8.46667 14.2 6.66667 12 6.66667ZM12 12C11.2667 12 10.6667 11.4 10.6667 10.6667C10.6667 9.93333 11.2667 9.33333 12 9.33333C12.7333 9.33333 13.3333 9.93333 13.3333 10.6667C13.3333 11.4 12.7333 12 12 12ZM4 20.6267V22.6667H20V20.6267C20 17.2933 14.7067 15.8533 12 15.8533C9.29333 15.8533 4 17.28 4 20.6267ZM7.08 20C8 19.2533 10.2533 18.5067 12 18.5067C13.7467 18.5067 16.0133 19.2533 16.92 20H7.08Z" fill="#007AFF"/>
</svg>
