<svg width="13" height="27" viewBox="0 0 13 27" fill="none" xmlns="http://www.w3.org/2000/svg">
  <path
    d="M7.36712 3.4035C7.35062 2.88 6.94142 2.4543 6.41732 2.4543C5.89322 2.4543 5.46752 2.8797 5.46752 3.4035C5.46752 3.9108 5.89322 4.3362 6.41732 4.3362C6.94142 4.3362 7.35062 3.9108 7.36712 3.4035ZM6.41732 0C8.30042 0 9.80672 1.5219 9.82292 3.4035C9.80642 5.2689 8.30012 6.7908 6.41732 6.7908C4.53452 6.7908 3.01172 5.2689 3.01172 3.4035C3.01172 1.5219 4.53452 0 6.41732 0Z"
    fill="#0F6FF5" />
  <path
    d="M10.3479 12.5836L10.3644 12.2563C10.3644 11.1598 9.4638 10.2271 8.3178 10.2271H4.5027C3.3567 10.2271 2.4561 11.1763 2.4561 12.2725L2.4888 12.5833L4.0608 22.8106C4.2246 23.8087 5.076 24.5452 6.0912 24.5452H6.7461C7.7448 24.5452 8.6127 23.8087 8.76 22.8106L10.3479 12.5836ZM0 12.2728C0 9.83467 1.9812 7.78927 4.5027 7.77277H8.3178C10.8393 7.77277 12.8205 9.81817 12.8205 12.2563C12.8205 12.4855 12.804 12.7144 12.7713 12.9598L11.1831 23.1874C10.8555 25.3801 8.9562 27.0001 6.7458 27.0001H6.0909C3.864 27.0001 1.9812 25.3801 1.6374 23.1874L0.0654001 12.9601C0.0162001 12.7147 0 12.502 0 12.2728Z"
    fill="#0F6FF5" />
</svg>
