<svg width="41" height="40" viewBox="0 0 41 40" fill="none" xmlns="http://www.w3.org/2000/svg">
<g clip-path="url(#clip0_22592_91342)">
<path d="M21.7441 13.3334C21.7441 9.65008 18.7608 6.66675 15.0775 6.66675C11.3941 6.66675 8.41081 9.65008 8.41081 13.3334C8.41081 17.0167 11.3941 20.0001 15.0775 20.0001C18.7608 20.0001 21.7441 17.0167 21.7441 13.3334ZM18.4108 13.3334C18.4108 15.1667 16.9108 16.6667 15.0775 16.6667C13.2441 16.6667 11.7441 15.1667 11.7441 13.3334C11.7441 11.5001 13.2441 10.0001 15.0775 10.0001C16.9108 10.0001 18.4108 11.5001 18.4108 13.3334ZM1.74414 30.0001V33.3334H28.4108V30.0001C28.4108 25.5667 19.5275 23.3334 15.0775 23.3334C10.6275 23.3334 1.74414 25.5667 1.74414 30.0001ZM5.07747 30.0001C5.41081 28.8167 10.5775 26.6667 15.0775 26.6667C19.5608 26.6667 24.7108 28.8001 25.0775 30.0001H5.07747ZM33.4108 25.0001V20.0001H38.4108V16.6667H33.4108V11.6667H30.0775V16.6667H25.0775V20.0001H30.0775V25.0001H33.4108Z" fill="#007AFF"/>
</g>
<defs>
<clipPath id="clip0_22592_91342">
<rect width="40" height="40" fill="white" transform="translate(0.078125)"/>
</clipPath>
</defs>
</svg>
