<svg width="34" height="27" viewBox="0 0 34 27" fill="none" xmlns="http://www.w3.org/2000/svg">
<path d="M22 8.25H28.25M22 13.25H28.25M22 18.25H28.25M4.5 25.75H29.5C31.5711 25.75 33.25 24.0711 33.25 22V4.5C33.25 2.42893 31.5711 0.75 29.5 0.75H4.5C2.42893 0.75 0.75 2.42893 0.75 4.5V22C0.75 24.0711 2.42893 25.75 4.5 25.75ZM14.5 8.875C14.5 10.6009 13.1009 12 11.375 12C9.64911 12 8.25 10.6009 8.25 8.875C8.25 7.14911 9.64911 5.75 11.375 5.75C13.1009 5.75 14.5 7.14911 14.5 8.875ZM16.6565 19.4356C15.0816 20.2745 13.2837 20.75 11.3747 20.75C9.4658 20.75 7.6679 20.2745 6.09302 19.4356C6.8831 17.2846 8.94971 15.75 11.3747 15.75C13.7998 15.75 15.8664 17.2846 16.6565 19.4356Z" stroke="#007AFF" stroke-width="1.5" stroke-linecap="round" stroke-linejoin="round"/>
</svg>
