<svg width="41" height="40" viewBox="0 0 41 40" fill="none" xmlns="http://www.w3.org/2000/svg">
<g clip-path="url(#clip0_22592_82560)">
<path d="M23.7448 3.33325H10.4115C8.57812 3.33325 7.07812 4.83325 7.07812 6.66659V33.3333C7.07812 35.1666 8.56146 36.6666 10.3948 36.6666H30.4115C32.2448 36.6666 33.7448 35.1666 33.7448 33.3333V13.3333L23.7448 3.33325ZM30.4115 33.3333H10.4115V6.66659H22.0781V14.9999H30.4115V33.3333Z" fill="#0F6FF5"/>
<path d="M15.4605 18.3832C13.1772 20.6665 13.1772 24.3498 15.4605 26.6332C17.3272 28.4998 20.1272 28.8165 22.3439 27.6165L25.4772 30.7498L27.8272 28.3998L24.6939 25.2665C25.8772 23.0498 25.5772 20.2498 23.7105 18.3832C21.4272 16.0998 17.7272 16.0998 15.4605 18.3832ZM21.3439 24.2665C20.3605 25.2498 18.7772 25.2498 17.8105 24.2665C16.8272 23.2832 16.8272 21.6998 17.8105 20.7332C18.7939 19.7498 20.3772 19.7498 21.3439 20.7332C22.3272 21.7165 22.3272 23.2832 21.3439 24.2665Z" fill="#0F6FF5"/>
</g>
<defs>
<clipPath id="clip0_22592_82560">
<rect width="40" height="40" fill="white" transform="translate(0.412109)"/>
</clipPath>
</defs>
</svg>
