<svg width="112" height="113" viewBox="0 0 112 113" fill="none" xmlns="http://www.w3.org/2000/svg">
<path d="M56 1.33398C86.6517 1.33398 111.5 26.1821 111.5 56.834C111.5 87.4859 86.6517 112.334 56 112.334C25.3481 112.334 0.5 87.4859 0.5 56.834C0.5 26.1821 25.3481 1.33398 56 1.33398Z" stroke="#0F6FF5" stroke-miterlimit="10"/>
<path opacity="0.4" d="M56 8.83398C82.5095 8.83398 104 30.3244 104 56.834C104 83.3438 82.5095 104.834 56 104.834C29.4905 104.834 8 83.3438 8 56.834C8 30.3244 29.4905 8.83398 56 8.83398Z" fill="#E7F1FE"/>
<path d="M63.7646 26.7852C65.3026 25.3097 67.6319 24.8201 69.6982 25.7295C86.5795 33.1597 94.4182 52.7137 87.4404 69.7139L87.0977 70.5215C79.6478 87.4369 60.0742 95.2415 43.1064 88.2812L42.3008 87.9385L41.377 87.5156C40.4587 87.0787 39.5688 86.605 38.708 86.0977C38.571 86.0169 38.4363 85.933 38.3008 85.8506C38.1457 85.7562 37.9901 85.663 37.8369 85.5664C37.7447 85.5082 37.654 85.4476 37.5625 85.3887C37.3749 85.2678 37.1875 85.1476 37.0029 85.0234C36.8786 84.9398 36.7568 84.8527 36.6338 84.7676C36.4886 84.6671 36.3425 84.5683 36.1992 84.4658C36.0656 84.3702 35.9347 84.2712 35.8027 84.1738C35.6724 84.0777 35.5408 83.9836 35.4121 83.8857C35.2731 83.7801 35.137 83.6711 35 83.5635C34.8801 83.4693 34.759 83.3768 34.6406 83.2812C34.4719 83.145 34.3063 83.0053 34.1406 82.8662C34.0613 82.7996 33.981 82.7343 33.9023 82.667C33.7328 82.522 33.5666 82.3736 33.4004 82.2256C33.3208 82.1547 33.24 82.0852 33.1611 82.0137C33.0011 81.8685 32.8444 81.7202 32.6875 81.5723C32.6092 81.4984 32.5296 81.4261 32.4521 81.3516C32.3121 81.217 32.1755 81.0792 32.0381 80.9424C31.9501 80.8548 31.8604 80.7691 31.7734 80.6807C31.6114 80.5158 31.4533 80.3475 31.2949 80.1797C31.235 80.1162 31.1736 80.0542 31.1143 79.9902C30.9593 79.8234 30.8075 79.654 30.6562 79.4844C30.5913 79.4116 30.5252 79.3399 30.4609 79.2666C30.3051 79.0888 30.1528 78.9083 30.001 78.7275C29.947 78.6633 29.8923 78.5997 29.8389 78.5352C29.7129 78.3829 29.5899 78.2285 29.4668 78.0742C29.388 77.9755 29.3081 77.8778 29.2305 77.7783C29.088 77.5958 28.9491 77.4108 28.8105 77.2256C28.7666 77.1668 28.7213 77.1089 28.6777 77.0498C28.5415 76.8652 28.4087 76.6783 28.2764 76.4912C28.2173 76.4077 28.1569 76.3252 28.0986 76.2412C27.9909 76.0859 27.8863 75.9285 27.7812 75.7715C27.7062 75.6593 27.6304 75.5476 27.5566 75.4346C27.4608 75.2875 27.368 75.1386 27.2744 74.9902C27.2008 74.8734 27.1259 74.7573 27.0537 74.6396C26.9441 74.4609 26.8377 74.2803 26.7314 74.0996C26.6816 74.015 26.6311 73.9308 26.582 73.8457C26.4671 73.6464 26.355 73.4456 26.2441 73.2441C26.1986 73.1614 26.1522 73.0792 26.1074 72.9961C26.022 72.8378 25.9393 72.6781 25.8564 72.5186C25.7859 72.3827 25.7152 72.2471 25.6465 72.1104C25.5814 71.9808 25.5185 71.8501 25.4551 71.7197C25.3821 71.5697 25.3091 71.4196 25.2383 71.2686C25.1656 71.1134 25.0957 70.957 25.0254 70.8008C24.9671 70.6713 24.9082 70.5422 24.8516 70.4121C24.7718 70.229 24.6947 70.0448 24.6182 69.8604C24.5738 69.7533 24.5286 69.6466 24.4854 69.5391C24.4052 69.3401 24.3283 69.1399 24.252 68.9395C24.2185 68.8515 24.1841 68.764 24.1514 68.6758C24.0793 68.4819 24.01 68.287 23.9414 68.0918C23.9016 67.9783 23.8619 67.8649 23.8232 67.751C23.7637 67.5754 23.7061 67.3992 23.6494 67.2227C23.6133 67.1101 23.577 66.9977 23.542 66.8848C23.4787 66.6807 23.4178 66.4758 23.3584 66.2705C23.3288 66.1681 23.2992 66.0656 23.2705 65.9629C23.1912 65.6791 23.1159 65.3943 23.0439 65.1084C23.023 65.0212 23.0048 64.9339 22.9883 64.8467H34.2988C34.306 64.866 34.3141 64.885 34.3213 64.9043C34.3407 64.9562 34.3611 65.0078 34.3809 65.0596C34.4305 65.1896 34.4813 65.3191 34.5332 65.4482C34.5668 65.5318 34.6012 65.6151 34.6357 65.6982C34.6725 65.7866 34.7092 65.875 34.7471 65.9629C34.7963 66.0772 34.8464 66.1911 34.8975 66.3047C34.931 66.3794 34.9647 66.454 34.999 66.5283C35.0475 66.6331 35.0965 66.7377 35.1465 66.8418C35.1868 66.9258 35.2282 67.0093 35.2695 67.0928C35.3164 67.1874 35.363 67.282 35.4111 67.376C35.4651 67.4813 35.5206 67.5859 35.5762 67.6904C35.6138 67.7612 35.6511 67.832 35.6895 67.9023C35.7233 67.9645 35.7585 68.026 35.793 68.0879C36.0105 68.4786 36.2394 68.8631 36.4795 69.2412C36.5189 69.3033 36.5576 69.366 36.5977 69.4277C36.6716 69.5418 36.7472 69.6548 36.8232 69.7676C36.8613 69.8241 36.8999 69.8803 36.9385 69.9365C37.0054 70.034 37.0731 70.131 37.1416 70.2275C37.1872 70.2918 37.233 70.3561 37.2793 70.4199C37.3576 70.5279 37.4364 70.6355 37.5166 70.7422C37.5568 70.7956 37.598 70.8483 37.6387 70.9014C37.7175 71.0043 37.7963 71.1073 37.877 71.209C37.9257 71.2705 37.975 71.3315 38.0244 71.3926C38.4187 71.8798 38.8341 72.3516 39.2695 72.8076C39.3293 72.8702 39.3887 72.9332 39.4492 72.9951C39.527 73.0748 39.6065 73.1528 39.6855 73.2314C39.7611 73.3066 39.8364 73.3819 39.9131 73.4561C39.9816 73.5223 40.0507 73.5879 40.1201 73.6533C40.1958 73.7247 40.2719 73.7957 40.3486 73.8662C40.4321 73.9428 40.5159 74.0192 40.6006 74.0947C40.6629 74.1503 40.7261 74.2049 40.7891 74.2598C40.8847 74.3431 40.9809 74.4259 41.0781 74.5078C41.1518 74.5699 41.2262 74.6311 41.3008 74.6924C41.3758 74.754 41.4505 74.8162 41.5264 74.877C41.6202 74.9521 41.7153 75.0258 41.8105 75.0996C41.884 75.1566 41.957 75.2144 42.0312 75.2705C42.0693 75.2993 42.1082 75.3269 42.1465 75.3555C42.3315 75.4935 42.5191 75.6288 42.709 75.7617C42.8223 75.8411 42.9357 75.9205 43.0508 75.998C43.1164 76.0422 43.1828 76.0853 43.249 76.1289C43.3529 76.1973 43.4573 76.2651 43.5625 76.332C43.6542 76.3903 43.7471 76.4468 43.8398 76.5039C43.923 76.5551 44.0059 76.6069 44.0898 76.6572C44.1895 76.7169 44.2898 76.7757 44.3906 76.834C44.4903 76.8916 44.5906 76.9486 44.6914 77.0049C44.7673 77.0473 44.8434 77.0892 44.9199 77.1309C45.0443 77.1985 45.1699 77.2644 45.2959 77.3301C45.3596 77.3633 45.4231 77.397 45.4873 77.4297C45.6284 77.5015 45.7709 77.5714 45.9141 77.6406C45.9701 77.6677 46.0257 77.696 46.082 77.7227C46.2794 77.8162 46.4786 77.9076 46.6797 77.9961C58.2022 83.0676 71.6217 77.9849 76.9375 66.7012L77.1846 66.1592C82.3207 54.4971 77.0249 40.824 65.3193 35.6719C63.2717 34.7704 62.0626 32.7512 62.0898 30.6416C62.328 30.5688 62.5468 30.4897 62.7461 30.4023C63.4469 30.0953 63.9123 29.7035 64.167 29.2627C64.4217 28.8217 64.4647 28.3331 64.3232 27.834C64.2244 27.485 64.0346 27.1317 63.7646 26.7852ZM26.9775 58.5693C29.8777 57.8245 32.8257 59.5747 33.5625 62.4785C33.764 63.2728 34.0088 64.055 34.292 64.8223H22.9834C22.469 62.0356 24.1951 59.2841 26.9775 58.5693ZM52.8838 15.4727C54.3196 14.0339 56.657 14.0548 58.0674 15.5186C59.439 16.9423 59.4198 19.2021 58.0234 20.6016L55.8047 22.8232C54.1886 22.8346 52.5821 22.961 50.9971 23.1992L50.9863 23.2012V34.2842L51.002 34.2812C53.2127 33.7907 55.5048 33.6213 57.8057 33.8018L58.0234 34.0195C59.4198 35.419 59.439 37.6788 58.0674 39.1025C56.6569 40.5663 54.3196 40.5864 52.8838 39.1475L43.8828 30.127C42.3297 28.5705 42.3297 26.0506 43.8828 24.4941L52.8838 15.4727ZM62.0654 30.6484C62.0426 32.6183 63.0926 34.5073 64.8945 35.4893C62.5799 34.5243 60.194 33.9648 57.8174 33.7773L54.9883 30.9424H55.498L56.1406 31.001C58.7944 31.2175 60.7344 31.0504 62.0654 30.6484ZM54.9482 23.6826L54.9277 23.7041H55.499C57.8721 23.7041 59.9326 24.2439 61.4697 25.0312C62.4603 25.5386 63.2314 26.1495 63.7305 26.7832C63.2364 27.2613 62.8246 27.8414 62.5303 28.5098C62.2271 29.1981 62.077 29.9149 62.0654 30.6221C60.634 31.056 58.4899 31.217 55.5 30.917H54.9277L54.9482 30.9385L57.7793 33.7744C55.4908 33.5978 53.2111 33.7665 51.0117 34.2529V23.2217C52.5839 22.9859 54.1774 22.8601 55.7803 22.8477L54.9482 23.6826ZM63.7461 26.8027C64.0135 27.1464 64.2021 27.496 64.2998 27.8408C64.4395 28.334 64.3964 28.8155 64.1455 29.25C63.8943 29.6848 63.4339 30.0742 62.7363 30.3799C62.54 30.4659 62.3242 30.5433 62.0898 30.6152C62.1023 29.9136 62.252 29.2024 62.5527 28.5195C62.8454 27.855 63.255 27.2783 63.7461 26.8027ZM55.8164 22.8477C60.2782 22.8178 64.8128 23.6711 69.1699 25.5029C67.2381 24.8849 65.1608 25.4104 63.748 26.7646C63.2458 26.1281 62.4721 25.5162 61.4814 25.0088C59.9405 24.2195 57.8758 23.6787 55.499 23.6787H54.9883L55.8164 22.8477Z" fill="#0F6FF5" stroke="#0F6FF5" stroke-width="0.025"/>
</svg>
