<svg width="72" height="72" viewBox="0 0 72 72" fill="none" xmlns="http://www.w3.org/2000/svg">
<path d="M12.9231 61.4999C11.4077 61.4999 10.125 60.9749 9.075 59.9249C8.025 58.8749 7.5 57.5922 7.5 56.0768V15.9231C7.5 14.4077 8.025 13.125 9.075 12.075C10.125 11.025 11.4077 10.5 12.9231 10.5H59.0768C60.5922 10.5 61.8749 11.025 62.9249 12.075C63.9749 13.125 64.4999 14.4077 64.4999 15.9231V56.0768C64.4999 57.5922 63.9749 58.8749 62.9249 59.9249C61.8749 60.9749 60.5922 61.4999 59.0768 61.4999H12.9231ZM12.9231 56.9999H59.0768C59.3076 56.9999 59.5191 56.9038 59.7115 56.7115C59.9038 56.5191 59.9999 56.3076 59.9999 56.0768V15.9231C59.9999 15.6923 59.9038 15.4807 59.7115 15.2884C59.5191 15.0961 59.3076 14.9999 59.0768 14.9999H12.9231C12.6923 14.9999 12.4807 15.0961 12.2884 15.2884C12.0961 15.4807 11.9999 15.6923 11.9999 15.9231V56.0768C11.9999 56.3076 12.0961 56.5191 12.2884 56.7115C12.4807 56.9038 12.6923 56.9999 12.9231 56.9999ZM15.75 50.2499H29.2499V45.75H15.75V50.2499ZM43.6499 43.9325L57.4325 30.1499L54.2249 26.9423L43.6499 37.5923L39.3749 33.3173L36.2423 36.5249L43.6499 43.9325ZM15.75 38.2499H29.2499V33.75H15.75V38.2499ZM15.75 26.2499H29.2499V21.75H15.75V26.2499Z" fill="#0F6FF5"/>
</svg>
