<svg width="41" height="40" viewBox="0 0 41 40" fill="none" xmlns="http://www.w3.org/2000/svg">
  <g clip-path="url(#clip0_8081_33411)">
    <rect width="40" height="40" transform="translate(0.332031)" fill="white" />
    <path
      d="M16.9987 20C20.682 20 23.6654 17.0167 23.6654 13.3334C23.6654 9.65002 20.682 6.66669 16.9987 6.66669C13.3154 6.66669 10.332 9.65002 10.332 13.3334C10.332 17.0167 13.3154 20 16.9987 20ZM16.9987 10C18.832 10 20.332 11.5 20.332 13.3334C20.332 15.1667 18.832 16.6667 16.9987 16.6667C15.1654 16.6667 13.6654 15.1667 13.6654 13.3334C13.6654 11.5 15.1654 10 16.9987 10Z"
      fill="#0F6FF5" />
    <path
      d="M6.9974 30C7.36406 28.8 12.5141 26.6667 16.9974 26.6667C16.9974 25.5 17.2141 24.3833 17.5807 23.35C13.0307 23.1833 3.66406 25.45 3.66406 30V33.3333H19.5641C18.6974 32.3667 18.0141 31.25 17.5807 30H6.9974Z"
      fill="#0F6FF5" />
    <path
      d="M32.7154 30.0333C33.3154 29.05 33.6654 27.9 33.6654 26.6667C33.6654 22.9833 30.682 20 26.9987 20C23.3154 20 20.332 22.9833 20.332 26.6667C20.332 30.35 23.3154 33.3333 26.9987 33.3333C28.232 33.3333 29.382 32.9667 30.3654 32.3833C31.9154 33.9333 33.0654 35.0833 34.6487 36.6667L36.9987 34.3167C34.4987 31.8167 35.682 32.9833 32.7154 30.0333ZM26.9987 30C25.1654 30 23.6654 28.5 23.6654 26.6667C23.6654 24.8333 25.1654 23.3333 26.9987 23.3333C28.832 23.3333 30.332 24.8333 30.332 26.6667C30.332 28.5 28.832 30 26.9987 30Z"
      fill="#0F6FF5" />
  </g>
  <defs>
    <clipPath id="clip0_8081_33411">
      <rect width="40" height="40" fill="white" transform="translate(0.332031)" />
    </clipPath>
  </defs>
</svg>
