<svg width="96" height="96" viewBox="0 0 96 96" fill="none" xmlns="http://www.w3.org/2000/svg">
<path d="M48 0.428711C74.2729 0.428713 95.5713 21.7269 95.5713 48C95.5713 74.2731 74.2729 95.5713 48 95.5713C21.7269 95.5713 0.428713 74.2731 0.428711 48C0.428711 21.7269 21.7269 0.428711 48 0.428711Z" stroke="#0DDB1E" stroke-width="0.857143" stroke-miterlimit="10"/>
<path opacity="0.4" d="M48.0003 6.85742C70.7227 6.85742 89.1431 25.2778 89.1431 48.0003C89.1431 70.723 70.7227 89.1431 48.0003 89.1431C25.2778 89.1431 6.85742 70.723 6.85742 48.0003C6.85742 25.2778 25.2778 6.85742 48.0003 6.85742Z" fill="#0DDB1E"/>
<path d="M48.0008 20.5713C63.1387 20.5713 75.4294 32.862 75.4294 47.9999C75.4294 63.1377 63.1387 75.4284 48.0008 75.4284C32.863 75.4284 20.5723 63.1377 20.5723 47.9999C20.5723 32.862 32.863 20.5713 48.0008 20.5713Z" fill="#0DDB1E"/>
<path d="M61.3613 39.4287L43.4995 57.2905L34.2852 48.0761" stroke="white" stroke-width="5.68681" stroke-linecap="round" stroke-linejoin="round"/>
</svg>
