<svg width="40" height="40" viewBox="0 0 40 40" fill="none" xmlns="http://www.w3.org/2000/svg">
<g clip-path="url(#clip0_34734_71262)">
<path d="M19.9987 3.33301C10.7987 3.33301 3.33203 10.7997 3.33203 19.9997C3.33203 29.1997 10.7987 36.6663 19.9987 36.6663C29.1987 36.6663 36.6654 29.1997 36.6654 19.9997C36.6654 10.7997 29.1987 3.33301 19.9987 3.33301ZM19.9987 33.333C12.6487 33.333 6.66536 27.3497 6.66536 19.9997C6.66536 12.6497 12.6487 6.66634 19.9987 6.66634C27.3487 6.66634 33.332 12.6497 33.332 19.9997C33.332 27.3497 27.3487 33.333 19.9987 33.333ZM24.9987 10.833V14.9997H18.332V18.333H24.9987V22.4997L30.832 16.6663L24.9987 10.833ZM14.9987 17.4997L9.16536 23.333L14.9987 29.1663V24.9997H21.6654V21.6663H14.9987V17.4997Z" fill="#0F6FF5"/>
</g>
<defs>
<clipPath id="clip0_34734_71262">
<rect width="40" height="40" fill="white"/>
</clipPath>
</defs>
</svg>
