<svg width="112" height="112" viewBox="0 0 112 112" fill="none" xmlns="http://www.w3.org/2000/svg">
<path d="M56 0.5C86.6517 0.5 111.5 25.3481 111.5 56C111.5 86.6519 86.6517 111.5 56 111.5C25.3481 111.5 0.5 86.6519 0.5 56C0.5 25.3481 25.3481 0.5 56 0.5Z" stroke="#F5950F" stroke-miterlimit="10"/>
<path opacity="0.4" d="M56 8C82.5095 8 104 29.4905 104 56C104 82.5098 82.5095 104 56 104C29.4905 104 8 82.5098 8 56C8 29.4905 29.4905 8 56 8Z" fill="#F5950F"/>
<path d="M56 24C73.6608 24 88 38.3392 88 56C88 73.6608 73.6608 88 56 88C38.3392 88 24 73.6608 24 56C24 38.3392 38.3392 24 56 24Z" fill="#F5950F"/>
<path d="M56.1372 63.1579C57.8235 63.1579 59 64.6774 59 66.041C59 67.6384 57.8235 69.1579 56.1372 69.1579C54.1764 69.1579 53 67.6384 53 66.041C53 64.6774 54.1764 63.1579 56.1372 63.1579ZM56.9318 42C57.6862 42 58.3306 42.6084 58.3668 43.3384L58.3684 43.4031V57.9653C58.3684 58.7021 57.7455 59.3315 56.9981 59.3668L56.9318 59.3684H55.0681C54.3138 59.3684 53.6694 58.7601 53.6332 58.03L53.6316 57.9653V43.4031C53.6316 42.6664 54.2544 42.0369 55.0019 42.0016L55.0681 42H56.9318Z" fill="white"/>
</svg>
