<svg width="16" height="16" viewBox="0 0 16 16" fill="none" xmlns="http://www.w3.org/2000/svg">
<path d="M14.5 15H1.5C1.4141 15 1.32965 14.9779 1.25478 14.9357C1.17992 14.8936 1.11718 14.8329 1.0726 14.7595C1.02802 14.686 1.00311 14.6024 1.00027 14.5165C0.997436 14.4307 1.01677 14.3455 1.0564 14.2693L7.5564 1.76931C7.59862 1.68812 7.66231 1.62008 7.74053 1.5726C7.81875 1.52511 7.9085 1.5 8 1.5C8.09151 1.5 8.18126 1.52511 8.25948 1.5726C8.3377 1.62008 8.40138 1.68812 8.4436 1.76931L14.9436 14.2693C14.9832 14.3455 15.0026 14.4307 14.9997 14.5165C14.9969 14.6024 14.972 14.686 14.9274 14.7595C14.8828 14.8329 14.8201 14.8936 14.7452 14.9357C14.6704 14.9779 14.5859 15 14.5 15Z" fill="#F5950F"/>
<path d="M7.4375 6H8.5625V10.5H7.4375V6ZM8 13C7.85166 13 7.70666 12.956 7.58332 12.8736C7.45999 12.7912 7.36386 12.6741 7.30709 12.537C7.25033 12.4 7.23547 12.2492 7.26441 12.1037C7.29335 11.9582 7.36478 11.8246 7.46967 11.7197C7.57456 11.6148 7.7082 11.5433 7.85368 11.5144C7.99917 11.4855 8.14997 11.5003 8.28701 11.5571C8.42406 11.6139 8.54119 11.71 8.6236 11.8333C8.70601 11.9567 8.75 12.1017 8.75 12.25C8.75 12.4489 8.67098 12.6397 8.53033 12.7803C8.38968 12.921 8.19891 13 8 13Z" fill="white"/>
</svg>
